<?xml version="1.0" encoding="UTF-8"?>
<svg xmlns="http://www.w3.org/2000/svg" xmlns:xlink="http://www.w3.org/1999/xlink" viewBox="0 0 535.08 550">
  <defs>
    <style>
      .cls-1 {
        fill: url(#_무제_그라디언트_101);
      }
    </style>
    <radialGradient id="_무제_그라디언트_101" data-name="무제 그라디언트 101" cx="267.54" cy="275" fx="480.67" fy="119.56" r="263.8" gradientUnits="userSpaceOnUse">
      <stop offset="0" stop-color="#fff"/>
      <stop offset=".05" stop-color="#fefdfd"/>
      <stop offset=".17" stop-color="#f7f8fa"/>
      <stop offset=".34" stop-color="#e5ebf5"/>
      <stop offset=".54" stop-color="#c8d6eb"/>
      <stop offset=".77" stop-color="#9fb8dd"/>
      <stop offset="1" stop-color="#6c93cd"/>
    </radialGradient>
  </defs>
  <g id="_레이어_2" data-name="레이어 2">
    <g>
      <path class="cls-1" d="M108.84,542.5c-55.88,0-101.34-45.46-101.34-101.34V147.04c0-37.11,14.56-72.11,41-98.55C74.93,22.06,109.93,7.5,147.04,7.5h212.37c44.72,0,86.9,17.55,118.76,49.4,31.86,31.86,49.4,74.03,49.4,118.76v227.29c0,37.11-14.56,72.11-41,98.55s-61.44,41-98.55,41H108.84Z"/>
      <path d="M359.41,15c21.58,0,42.56,4.26,62.34,12.67,19.12,8.12,36.32,19.74,51.11,34.54,14.8,14.8,26.42,31.99,34.54,51.11,8.41,19.78,12.67,40.76,12.67,62.34v227.29c0,35.11-13.78,68.22-38.8,93.24-25.02,25.02-58.13,38.8-93.24,38.8H108.84c-24.94,0-48.48-9.79-66.26-27.58-17.78-17.78-27.58-41.32-27.58-66.26V147.04c0-35.11,13.78-68.22,38.8-93.24,25.02-25.02,58.13-38.8,93.24-38.8h212.37M359.41,0h-212.37C66.17,0,0,66.17,0,147.04v294.12c0,59.86,48.98,108.84,108.84,108.84h279.2c80.87,0,147.04-66.17,147.04-147.04v-227.29C535.08,79.05,456.03,0,359.41,0h0Z"/>
    </g>
  </g>
  <g id="_레이어_1" data-name="레이어 1">
    <g>
      <path d="M282.25,64.11c-1.94,1.16-3.72,2.4-3.95,2.79-.31.46-1.24.54-2.17.31-1.08-.23-1.63,0-1.63.62s-1.78,2.24-4.03,3.72c-6.35,4.33-15.17,11.92-23.22,20.2l-7.51,7.74-8.36-.23c-14.48-.31-27.32,1.55-46.29,6.89-7.9,2.17-15.4,5.11-15.71,6.12-.15.46-.77.85-1.39.85s-2.09.46-3.33,1.08l-2.09,1.16-4.1-8.28c-6.81-13.7-14.32-23.07-16.87-20.98-2.94,2.55-2.79,3.72,1.32,9.68,2.17,3.17,3.79,5.73,3.48,5.73-.23,0,.23.7,1.01,1.55s3.95,6.58,7.04,12.69c5.34,10.76,7.2,13,9.37,11.69.39-.23.77-1.24.77-2.17,0-3.17-.15-3.1,16.64-7.51,4.72-1.16,13.08-3.1,18.58-4.18,13-2.48,31.58-5.88,32.36-5.88,1.32,0,.39,2.09-2.17,4.88-1.47,1.63-2.71,3.33-2.71,3.79s-.85,2.01-1.94,3.41-2.32,3.48-2.79,4.72c-1.01,2.48-1.08,7.9-.15,8.82,1.01.93,3.64,1.16,3.72.31.15-1.39,2.24-5.34,5.03-9.6,4.8-7.28,5.11-7.74,7.43-10.3,1.24-1.39,3.17-3.79,4.26-5.26,1.16-1.47,3.1-3.79,4.26-5.19,1.24-1.32,3.64-4.1,5.34-6.12s3.95-4.57,5.03-5.73,2.79-3.17,3.79-4.49c1.08-1.32,2.24-2.17,2.63-1.94.31.23.85-.31,1.08-1.24.23-.85,1.94-2.63,3.79-3.87,1.94-1.24,4.18-3.17,5.03-4.26.93-1.16,4.18-3.79,7.35-5.96,4.57-3.02,5.73-4.26,5.73-5.73,0-2.4-.39-2.4-4.64.15Z"/>
      <path d="M297.96,66.43c-1.55.54-1.16,2.86.62,4.1,1.7,1.24,4.1,6.12,4.95,10.14.31,1.47,1.16,3.33,1.94,4.18.93,1.01,1.39,2.71,1.39,5.03-.08,3.41,3.33,15.71,4.88,17.49.39.46.54,1.39.31,2.01-.23.54.31,3.1,1.16,5.57.85,2.55,1.55,5.19,1.55,5.96,0,2.55,2.48,6.66,4.95,8.13l2.4,1.39-1.94.54c-1.08.31,1.7.54,6.19.62h8.13l-2.71-2.32c-1.47-1.32-4.03-3.02-5.57-3.87-3.48-1.78-4.18-2.94-4.8-8.44-.85-7.12-3.72-21.05-4.88-23.76-.54-1.47-1.63-2.86-2.24-3.1-1.7-.62-2.79-3.87-1.86-5.65.62-1.16.46-1.7-.77-2.55-1.01-.7-1.39-1.55-1.08-2.4s-.39-2.17-2.32-3.95c-1.63-1.47-2.71-3.02-2.48-3.33.23-.39-.7-1.94-1.94-3.48-2.24-2.71-3.64-3.25-5.88-2.32Z"/>
      <path d="M289.68,85.24c.15,1.94.7,6.58,1.16,10.45.46,3.79.93,7.97,1.08,9.29,1.39,13,2.09,18.89,2.48,20.51.23,1.08.46,3.48.46,5.42,0,2.24.08,2.71.31,1.24l.39-2.24,1.39,2.4c1.01,1.63,1.86,2.24,2.86,2.01,1.39-.39,1.47-1.24,1.32-10.6-.23-13.47-1.47-23.53-3.87-31.27-1.08-3.56-1.7-6.73-1.47-7.2.23-.39.08-1.39-.39-2.09-.7-1.16-.77-1.08-.31.54.39,1.55.31,1.78-.54.93-.54-.46-1.63-.93-2.4-.93s-1.39.46-1.47.93c-.08.54-.39.15-.7-.93-.54-1.39-.62-1.01-.31,1.55Z"/>
      <path d="M129.37,89.03c-2.01,1.24-6.89,6.12-13.7,13.78-1.24,1.32-2.17,2.94-2.17,3.64s-.54,1.47-1.16,1.7c-1.24.46-3.48,4.49-3.48,6.27,0,.54-.31,1.01-.62,1.01-2.48,0-15.09,30.34-16.87,40.64-.31,1.7-1.16,4.49-1.94,6.19-1.55,3.41-3.79,13.86-3.1,14.09.23.15,2.17-.23,4.33-.77,3.72-.93,3.87-1.01,4.49-4.41,1.16-6.35,5.96-23.61,7.12-25.7.62-1.08,1.16-2.71,1.16-3.48s.31-1.78.7-2.24c.39-.39,1.08-2.09,1.63-3.79,1.39-4.41,3.48-9.06,7.51-17.03,4.03-7.82,5.88-10.37,14.17-19.74,8.67-9.75,8.36-9.29,6.58-10.53q-1.86-1.39-4.64.39Z"/>
      <path d="M136.57,89.65c.54.23,1.24.15,1.47-.08.31-.23-.15-.46-1.01-.39-.85,0-1.08.23-.46.46Z"/>
      <path d="M134.09,107.45c-.31.7-.15,2.32.31,3.64.7,2.17,1.55,7.12,2.71,15.17.23,1.47.77,3.72,1.16,4.95.54,1.55.46,3.79-.15,7.12-.77,4.18-.7,5.57.46,9.91,1.32,4.72,1.55,5.11,3.56,5.11s2.09-.23,2.63-4.72c.7-7.35.54-16.56-.39-17.49-1.16-1.16-3.64-14.86-3.25-18.04.23-1.86.08-2.4-.39-1.63-.54.77-.85.77-1.32.08-.31-.54-.23-1.16.15-1.47.46-.23.54-1.16.31-1.94-.77-1.94-5.11-2.48-5.81-.7Z"/>
      <path d="M244.63,114.27c-2.79,1.16-11.15,10.06-11.15,11.92,0,.7.39,1.7.93,2.24.62.62,2.09-.46,5.96-4.49,5.03-5.34,7.04-6.58,7.04-4.26,0,.62.39,1.16.77,1.16,1.16,0,.93-6.73-.23-7.2-.54-.23-2.01.08-3.33.62Z"/>
      <path d="M251.36,117.44c0,.85.23,1.08.46.46.23-.54.15-1.24-.08-1.47-.23-.31-.46.15-.39,1.01Z"/>
      <path d="M142.99,120.54c0,.85.23,1.08.46.46.23-.54.15-1.24-.08-1.47-.23-.31-.46.15-.39,1.01Z"/>
      <path d="M257.55,121.39c.54.93,1.16,1.55,1.39,1.32.23-.15-.23-.93-1.01-1.7-1.32-1.24-1.39-1.24-.39.39Z"/>
      <path d="M245.25,124.72l-1.7,3.02,1.86,1.24c2.24,1.47,4.72.62,5.5-1.86.31-1.01,1.32-1.63,2.86-1.78,3.72-.39,3.41-1.86-.46-2.86-5.34-1.32-6.12-1.08-8.05,2.24Z"/>
      <path d="M143.77,123.63c0,.85.23,1.08.46.46.23-.54.15-1.24-.08-1.47-.23-.31-.46.15-.39,1.01Z"/>
      <path d="M442.48,126.26c-1.01.23-2.09,1.16-2.32,2.09-.23.85-1.55,2.55-2.86,3.72-1.39,1.16-2.55,2.55-2.55,3.1s-.54,1.39-1.16,1.94c-.7.54-1.01,1.16-.85,1.39.23.15-.08,1.32-.7,2.55-3.72,7.12,2.32,8.59,6.35,1.55,1.16-2.09,2.4-3.64,2.86-3.41.39.31.46.08.15-.46-.39-.54,0-1.63.77-2.55.77-.85,1.47-2.09,1.47-2.79s.54-1.39,1.24-1.55c.77-.15,1.78,1.16,3.1,3.87,1.01,2.24,2.09,4.18,2.32,4.33.31.15.39,1.01.23,1.94s-.15,1.32.08.85,1.32-.7,2.32-.46c1.86.31,1.94.23,1.94-4.64,0-3.79-.39-5.5-1.47-6.89-.77-1.01-1.55-2.55-1.7-3.33-.23-1.16-1.01-1.55-3.79-1.63-1.94-.08-4.33.08-5.42.39Z"/>
      <path d="M265.84,129.13c.39,1.63.54,1.78.77.7.15-.77,0-1.7-.46-2.17s-.54,0-.31,1.47Z"/>
      <path d="M128.9,133c-.93,1.24-.93,1.32.08.54.62-.46,1.7-1.08,2.32-1.32,1.01-.39.93-.46-.08-.46-.7-.08-1.78.54-2.32,1.24Z"/>
      <path d="M129.52,136.17c-.85.93-1.32,2.71-1.32,4.95,0,3.87-.7,4.49-4.72,4.49-1.7,0-2.48.54-3.41,2.4-.93,1.7-1.01,2.63-.46,3.33.46.54.62,1.16.46,1.39-.23.23.46.23,1.55.08,1.24-.31,1.94-.93,1.94-1.86,0-1.86.85-1.86,3.33.08,3.87,3.02,7.35,1.16,5.81-3.25-.7-2.01-.62-8.82.23-11.38.46-1.7-1.94-1.86-3.41-.23Z"/>
      <path d="M342.62,138.57c0,.39-.93.85-2.09,1.08-1.24.23-3.1.77-4.26,1.24-1.94.7-2.09,1.01-1.32,2.63.62,1.39.39,2.94-1.08,7.35-1.08,3.1-2.09,5.88-2.4,6.12-.23.31-.46,1.01-.46,1.55,0,.62-1.55,4.33-3.41,8.21-1.86,3.95-3.79,8.51-4.33,10.22-1.39,4.49-7.97,20.9-10.53,26.32l-2.24,4.64-6.19.62c-8.75.93-13.08.93-19.97.08-6.42-.85-24.92.39-29.57,2.01-3.33,1.16-4.18-.39-1.08-1.94,3.33-1.7,6.89-5.03,6.89-6.42,0-1.55-5.5-.54-10.53,1.86-2.17,1.01-4.33,1.86-4.72,1.86-.46,0-1.63.7-2.71,1.47-1.01.85-2.86,1.78-3.95,2.01-1.16.31-2.4,1.01-2.71,1.47-.31.54-2.09,1.39-3.95,2.01s-3.79,1.55-4.33,2.01c-.54.54-4.41,2.17-8.59,3.64-13.31,4.64-15.79,6.04-21.83,12.23-5.11,5.19-6.81,7.66-8.13,11.69-.39,1.16-1.32,1.24-6.97.85-4.95-.31-8.05-.08-12.54.93l-6.04,1.47-1.63-2.01c-2.86-3.56-9.13-7.28-14.01-8.28-10.99-2.32-20.44-4.8-24.77-6.58-5.42-2.17-9.91-3.17-11.61-2.48-1.08.39-1.08.62,0,2.32l1.24,1.86-4.49.54c-3.79.39-11.77,1.39-17.65,2.17-.85.15-2.63.85-4.03,1.55-3.02,1.63-7.2,1.78-7.2.23,0-.85-3.17-2.48-3.48-1.78-.08.08-1.94,2.86-4.1,6.27-4.8,7.28-5.5,10.06-3.64,14.94,1.47,3.72,2.32,4.72,6.5,7.43,2.94,1.94,4.41,4.41,7.82,13.7,1.39,3.64,2.86,7.59,3.33,8.9,1.32,3.48,6.42,10.91,9.52,13.86,3.17,3.02,4.03,6.97,1.47,7.12-5.34.31-5.26.23-4.26,1.55.77.85,1.78,1.08,3.87.7,3.25-.54,4.33.39,5.11,4.03.39,2.01.08,2.63-1.94,4.03-1.32,1.01-3.17,3.17-4.03,4.95-.93,1.78-2.09,3.79-2.63,4.41s-2.4,4.49-4.18,8.59c-7.04,16.72-10.22,33.36-8.75,45.44,2.09,16.41,11.07,30.19,25.23,38.78,5.19,3.1,18.04,8.51,20.28,8.59,3.25,0,3.64,1.63,3.1,11.77-.31,5.19-.7,9.68-.85,9.99-.23.23-.93,4.1-1.55,8.51-.7,4.41-2.55,13.24-4.1,19.51l-2.94,11.46,5.34-.23,5.26-.23,1.47-4.26c3.41-10.14,5.65-24.69,6.04-39.09l.31-13.93h19.12c14.86-.08,20.28-.31,24.85-1.32,3.17-.7,9.83-2.09,14.71-2.94,17.57-3.33,35.76-10.53,40.87-16.26.93-1.01,1.01-1.01.46,0-.31.62.46.23,1.7-.85,3.48-3.17,14.4-10.06,16.72-10.53,1.24-.23,1.94-.77,1.63-1.24s0-.62.77-.31,1.32.08,1.32-.39.23-.7.46-.39c.23.23,1.32-.46,2.4-1.63s1.47-1.39.93-.62c-.77,1.08-.77,1.39-.08.93,1.94-1.16,4.03-6.58,4.03-10.6,0-3.25-.23-4.03-1.55-4.33-.85-.23-1.39-.7-1.16-1.01.23-.39,0-.93-.46-1.24-.62-.31-.7-.23-.39.31.39.62-.31.93-2.24.93-2.94,0-4.41,1.7-2.79,3.33,1.24,1.24,1.01,4.49-.39,6.35-.62.85-1.32,1.47-1.47,1.32-.93-.46-2.01-.08-1.55.54.23.46-.23,1.16-1.08,1.55-2.01,1.08-2.63,1.08-2.01-.08.31-.54,0-.39-.62.31-.62.77-1.47,1.39-1.94,1.39s-.93.23-1.08.62c-.54,1.24-7.51,6.35-13.78,9.99-9.91,5.81-20.51,9.68-34.06,12.54-4.49.93-9.83,2.24-12,2.79-6.04,1.63-14.78,2.17-33.28,2.09-16.26-.08-27.01-1.01-28.56-2.55-.46-.39-1.47-.7-2.4-.7-3.25,0-19.82-8.51-23.61-12.15-1.47-1.39-2.94-2.55-3.25-2.55-.39,0-1.24-1.32-1.94-2.94-.77-1.55-1.7-3.41-2.17-4.03-3.02-4.03-4.8-13.93-5.11-28.64-.15-7.97.31-11.77,2.24-17.03.23-.62.46-1.55.46-1.94.77-7.04,13.24-27.56,16.64-27.4.7,0,2.48,1.55,3.95,3.41s4.03,3.95,5.65,4.72c1.55.7,2.86,1.63,2.86,2.01,0,.31.7.62,1.47.62.85,0,1.7.31,1.94.7s1.55.93,2.94,1.16,3.48.93,4.64,1.55c1.78.93,2.24.93,3.02,0,.46-.54.7-1.63.39-2.24-.23-.62-.08-1.16.39-1.16s-1.08-1.01-3.41-2.24c-9.44-4.95-19.89-13.55-21.13-17.26-.23-.77-.77-1.39-1.16-1.39s-.7-.7-.7-1.55c0-1.78.23-1.86,3.87-.7,9.29,2.79,32.2,3.79,40.1,1.78,6.12-1.63,14.32-6.12,15.87-8.75,1.7-2.94,1.78-14.01.15-21.91-1.01-4.49-1.08-6.35-.39-9.29,1.7-6.89,5.65-8.9,15.56-7.9,8.05.77,9.6,2.17,12.77,11.38,3.17,9.37,6.12,14.86,9.21,17.26,8.05,6.12,27.25,8.9,42.65,6.19,3.41-.62,8.75-1.47,11.92-2.01,5.96-1.01,14.32-3.1,17.88-4.49,3.25-1.24,10.14-5.96,13.08-8.82,6.97-6.81,9.83-10.99,11.15-16.26,1.39-5.81,1.63-16.41.46-23.38-.77-4.8-.08-7.43,1.86-7.43.62,0,3.33-1.01,6.04-2.24,4.26-1.86,5.19-2.71,7.04-6.12,1.24-2.24,2.79-4.33,3.56-4.8.77-.39,1.63-1.86,1.94-3.25.85-4.72,9.68-31.5,12.93-39.48,1.78-4.41,4.41-10.91,5.81-14.55s2.94-6.58,3.56-6.58c1.55,0,8.21,12.31,10.3,18.89,1.94,6.27,4.33,16.41,5.88,25.23.54,2.94,1.01,10.99,1.01,17.8l.08,12.31-1.94,1.01c-2.48,1.24-6.97,4.95-6.97,5.81,0,1.16,1.7.62,4.03-1.32,1.24-1.08,2.71-1.94,3.33-1.94.54,0,1.55.85,2.24,1.94,1.32,2.01,3.87,2.55,4.72,1.08,1.78-2.79,4.95-22.06,4.64-27.87-.31-5.11-.54-11.92-.46-13.24.08-.77,2.4-2.55,6.12-4.57,10.53-5.73,19.12-10.99,20.13-12.39,1.55-2.17,3.72-4.03,7.51-6.42,1.32-.85,3.02-2.4,3.87-3.48s2.94-3.33,4.57-4.95c1.7-1.55,2.86-2.86,2.63-2.86-.39,0,1.24-1.86,8.51-9.6,1.16-1.24,1.55-1.94.93-1.63-.93.46-1.01.39-.15-.46,1.63-1.78,1.16-3.79-1.01-3.79-1.32,0-3.41,1.39-6.42,4.26-2.4,2.4-4.33,4.57-4.26,4.88.23.93-6.89,6.35-7.74,5.81-.39-.23-.54-.08-.31.31.31.46-.31,1.39-1.39,2.09-2.48,1.63-3.17,1.55-1.86-.15.85-1.08.77-1.01-.7.15-1.86,1.63-2.24,2.4-.7,1.63.46-.31.08.23-1.01,1.08-1.08.93-5.65,3.41-10.22,5.65-4.95,2.48-8.44,4.64-8.67,5.42-.15.77-1.01,1.39-1.94,1.39-.85,0-1.86.46-2.17,1.08-.39.7-2.48,1.16-5.88,1.32l-5.34.31-1.08-3.1c-.62-1.7-1.7-4.64-2.32-6.58-2.63-7.51-9.37-20.13-10.68-20.13-1.01,0-2.79-5.26-2.79-8.36,0-2.01-1.7-5.34-3.41-6.5-1.16-.85-4.33-.77-4.33.08ZM421.58,151.34c0,.15-.62.77-1.32,1.32-1.24,1.01-1.32.93-.31-.31s1.63-1.63,1.63-1.01ZM242.54,225.5c.54.46,1.01,1.16,1.01,1.63,0,.39,1.24,2.17,2.79,3.95,6.19,7.12,16.56,20.05,16.56,20.59,0,.39,1.08,1.86,2.4,3.25,3.02,3.25,16.18,21.36,16.18,22.29,0,1.16-10.68,6.12-15.71,7.28-10.91,2.55-12.23,2.48-14.24-1.32-.62-1.32-3.41-5.11-6.12-8.44-2.71-3.25-4.95-6.35-4.95-6.81,0-.54-1.24-2.32-2.71-4.1-9.29-10.91-24.38-30.5-24.38-31.58,0-1.39,7.43-4.03,14.71-5.34,1.94-.31,4.88-1.16,6.58-1.78,3.1-1.24,6.12-1.08,7.9.39ZM122.17,243.61c1.86.54,8.44,9.83,20.9,29.41,5.73,8.98,11.38,17.65,12.46,19.35,1.16,1.63,2.09,3.56,2.09,4.18,0,2.4-10.3,6.19-16.8,6.19-4.64,0-5.19-.46-10.14-8.13-7.2-11.22-19.51-29.72-26.01-39.09-3.72-5.26-6.58-10.14-6.5-10.84.15-.77,1.55-1.32,4.49-1.63,4.33-.54,17.11-.15,19.51.54Z"/>
      <path d="M428.62,142.52c-1.01.85-1.47,1.55-1.08,1.55.46,0,1.39-.7,2.17-1.55,1.78-1.94,1.32-1.94-1.08,0Z"/>
      <path d="M451.07,145.31c0,.85.23,1.08.46.46.23-.54.15-1.24-.08-1.47-.23-.31-.46.15-.39,1.01Z"/>
      <path d="M434.35,148.71l-2.32.62,2.09.08c1.16,0,2.32-.31,2.55-.7.23-.46.39-.7.23-.7-.15.08-1.24.39-2.55.7Z"/>
      <path d="M451.92,154.9c-.08,4.03-.08,7.51-.15,7.74s-.23,1.24-.31,2.24c-.15,1.01-.85,2.32-1.63,2.86-.85.62-1.16,1.08-.77,1.08s0,.46-.85,1.08c-.77.62-1.24,1.39-.85,1.7.31.31.54.15.54-.31,0-.54.39-.93.77-.93.46,0,.77.54.77,1.16,0,.7.54,1.39,1.16,1.63.62.31.93.77.7,1.16-.7,1.16.23.77,1.32-.62.93-1.16.93-1.24-.08-.62-.85.46-.93.39-.31-.31.46-.54,2.24-1.16,3.87-1.39,3.87-.46,4.8,1.01,5.5,8.13.39,3.95.62,4.72,1.08,3.25.39-1.39.54-.93.54,1.94,0,2.09-.15,3.33-.39,2.71-.62-1.47-2.48,6.27-2.55,10.22,0,4.57-3.1,17.65-5.11,21.91-1.01,2.09-3.95,8.9-6.58,15.09-2.55,6.12-8.82,19.35-13.78,29.41-5.03,9.99-9.37,18.81-9.6,19.51-.31.77-.85,1.39-1.32,1.39s-.62.31-.39.77c.23.39.08.77-.39.77s-.7.31-.46.7c.31.39.23.85-.15,1.01-.7.31-5.26,10.84-4.95,11.69.08.31-.23.54-.7.54s-.62.7-.31,1.63c.39,1.08.31,1.47-.31,1.16-.54-.39-.7-.08-.39.62.23.7.08,1.24-.39,1.24s-.85.39-.85.85c0,.39.31.62.7.39.31-.23.85,2.94,1.01,7.12.46,8.05,1.86,13.31,6.42,23.61,1.01,2.32,1.08,3.17.39,4.03s-.62,1.86.23,4.41c.62,1.86,1.63,4.8,2.17,6.58.54,1.86,1.16,3.33,1.39,3.33.31,0,.93,2.32,1.47,5.19s1.32,5.57,1.78,6.12c.39.54.85,2.32.93,4.03,0,1.78.46,3.1.85,3.02.46-.08,1.01,1.94,1.32,4.49s1.01,6.19,1.7,8.13c.62,1.94,1.39,5.11,1.63,7.2.31,2.01.85,4.41,1.24,5.42.77,1.86,3.25,14.09,4.95,24.92.62,3.79,2.55,14.63,4.33,24,1.7,9.37,3.1,17.57,3.02,18.19s.08,2.01.31,3.1c.31,1.08.7,4.41.85,7.43.23,3.1.62,6.81.85,8.36l.54,2.79h12.31l-.46-6.42c-.7-9.75-2.63-22.68-4.33-29.57-1.39-5.42-4.03-17.18-6.04-27.09-.39-1.7-2.48-10.22-4.72-18.96-4.03-15.95-6.81-27.94-7.43-31.97-.15-1.16-.62-2.79-1.08-3.64-.39-.77-2.17-5.73-3.87-10.99s-3.87-11.77-4.72-14.55c-2.48-7.43-7.51-20.67-9.21-24.07-.85-1.63-1.55-3.87-1.55-5.03,0-3.02,2.32-11.3,3.56-12.77.62-.62,1.78-3.25,2.63-5.81.85-2.48,3.56-8.05,5.96-12.31,6.58-11.53,18.58-36.07,21.98-44.74,4.33-11.3,8.44-27.01,8.44-32.82,0-1.32.31-2.63.77-2.94.39-.23,1.01-2.63,1.32-5.26.54-4.8.62-5.57.23-12.15-.08-1.94.23-5.03.77-6.97,1.86-6.58-1.08-14.86-6.04-17.18-1.86-.93-2.17-1.55-2.48-6.04-.46-5.42-1.7-8.51-3.48-8.51-.62,0-1.39.93-1.7,2.09l-.54,2.17-.54-2.32c-.39-1.47-.54.46-.54,5.03ZM461.6,196.08c-.23.62-.46.39-.46-.46-.08-.85.15-1.32.39-1.01.23.23.31.93.08,1.47Z"/>
      <path d="M112.03,155.37c0,.85.23,1.08.46.46.23-.54.15-1.24-.08-1.47-.23-.31-.46.15-.39,1.01Z"/>
      <path d="M231,166.28c.54.23,1.24.15,1.47-.08.31-.23-.15-.46-1.01-.39-.85,0-1.08.23-.46.46Z"/>
      <path d="M446.43,174.1c-.08,1.94,1.94,3.1,3.17,1.86.62-.62.39-.7-.77-.39-1.24.31-1.63-.08-1.94-1.47l-.31-1.78-.15,1.78Z"/>
      <path d="M101.73,191.83c.54.23,1.24.15,1.47-.08.31-.23-.15-.46-1.01-.39-.85,0-1.08.23-.46.46Z"/>
      <path d="M95.54,192.6c.54.23,1.24.15,1.47-.08.31-.23-.15-.46-1.01-.39-.85,0-1.08.23-.46.46Z"/>
      <path d="M85.25,193.61c-.85.39-1.16.7-.77.7.46.08.77,3.95.77,9.91.08,13.55.93,20.13,3.02,21.52.85.62,1.78,1.16,2.01,1.16s.46-6.35.62-14.17c.08-7.74.39-15.4.62-17.03.46-2.86.39-2.86-2.17-2.79-1.39,0-3.25.31-4.1.7Z"/>
      <path d="M362.44,241.06c.23.77.7,1.16.93.93s0-.85-.54-1.39c-.77-.7-.85-.62-.39.46Z"/>
      <path d="M363.52,247.02c-1.47.85-2.32,1.47-1.94,1.47.46,0,2.01-.62,3.48-1.47s2.4-1.47,1.94-1.47c-.39,0-2.01.62-3.48,1.47Z"/>
      <path d="M354.93,251.43c-1.01,1.24-.93,1.32.31.31s1.63-1.63,1.01-1.63c-.15,0-.77.62-1.32,1.32Z"/>
      <path d="M350.75,253.21c-1.01.46-1.16.7-.39.7.62,0,1.7-.31,2.32-.7,1.39-.93.15-.93-1.94,0Z"/>
      <path d="M337.2,259.4c-.62.39-.77.77-.39.77.46,0,1.32-.39,1.94-.77s.85-.77.39-.77c-.39,0-1.32.39-1.94.77Z"/>
      <path d="M185.02,289.75l-1.47,1.78,1.78-1.47c1.63-1.39,2.09-2.01,1.47-2.01-.15,0-.93.77-1.78,1.7Z"/>
      <path d="M189.82,290.13c-.46,1.08-.39,1.16.39.46.54-.54.77-1.16.54-1.39s-.7.15-.93.93Z"/>
      <path d="M179.3,294.55c0,.15.54.54,1.24.77.62.23.93.15.7-.31-.46-.77-1.94-1.08-1.94-.46Z"/>
      <path d="M185.57,297.8c0,.85.23,1.08.46.46.23-.54.15-1.24-.08-1.47-.23-.31-.46.15-.39,1.01Z"/>
      <path d="M186.34,301.67c0,.85.23,1.08.46.46.23-.54.15-1.24-.08-1.47-.23-.31-.46.15-.39,1.01Z"/>
      <path d="M413.91,308.63c0,.85.23,1.08.46.46.23-.54.15-1.24-.08-1.47-.23-.31-.46.15-.39,1.01Z"/>
      <path d="M413.3,314.36c0,1.94.15,2.71.31,1.7.15-.93.15-2.48,0-3.48-.15-.93-.31-.15-.31,1.78Z"/>
      <path d="M413.99,320.17c0,.85.23,2.24.62,3.1.85,1.94.85-.08,0-2.71-.46-1.55-.62-1.63-.62-.39Z"/>
      <path d="M416.16,327.91c0,.39.39,1.32.77,1.94s.77.77.77.39c0-.46-.39-1.32-.77-1.94s-.77-.85-.77-.39Z"/>
      <path d="M418.56,332.94c1.08,2.4,1.47,2.79,1.47,1.86,0-.46-.54-1.47-1.24-2.32q-1.08-1.39-.23.46Z"/>
      <path d="M138.27,333.25c0,.23.7.77,1.55,1.24s1.55.62,1.55.46c0-.23-.7-.77-1.55-1.24s-1.55-.62-1.55-.46Z"/>
      <path d="M239.13,335.8c1.16.15,3.02.15,4.26,0,1.16-.15.15-.31-2.17-.31s-3.33.15-2.09.31Z"/>
      <path d="M141.13,336.65c-4.03.23-5.34,1.63-3.79,4.1.77,1.16.62,1.39-1.24,1.63-1.16.15,8.21.54,20.74.85,12.54.31,24.23.7,25.93.85,10.91,1.08,39.63,2.17,36.38,1.32l-2.32-.54,2.55-.54c1.78-.39,2.48-.93,2.48-2.09,0-1.32-.54-1.55-3.64-1.63-2.79,0-3.33-.23-2.17-.7.93-.39-2.01-.54-7.51-.39-5.03.08-8.98-.08-8.75-.39.7-1.08-48.22-3.17-58.67-2.48ZM207.7,340.37c-.23.23-.93.31-1.47.08-.62-.23-.39-.46.46-.46.85-.08,1.32.15,1.01.39Z"/>
      <path d="M234.1,336.58c.54.23,1.24.15,1.47-.08.31-.23-.15-.46-1.01-.39-.85,0-1.08.23-.46.46Z"/>
      <path d="M247.96,337.2c1.7.7,2.71,1.86,3.25,3.64.54,2.01.7,2.17.77.77.08-2.09-3.1-5.57-5.11-5.57-.85.08-.46.46,1.08,1.16Z"/>
      <path d="M227.91,338.13c.54.23,1.24.15,1.47-.08.31-.23-.15-.46-1.01-.39-.85,0-1.08.23-.46.46Z"/>
      <path d="M128.83,338.9c.54.23,1.24.15,1.47-.08.31-.23-.15-.46-1.01-.39-.85,0-1.08.23-.46.46Z"/>
      <path d="M224.81,338.9c.54.23,1.24.15,1.47-.08.31-.23-.15-.46-1.01-.39-.85,0-1.08.23-.46.46Z"/>
      <path d="M420.88,339.6c0,.85.23,1.08.46.46.23-.54.15-1.24-.08-1.47-.23-.31-.46.15-.39,1.01Z"/>
      <path d="M219.78,339.67c.7.15,1.94.15,2.71,0,.7-.23.08-.39-1.39-.39s-2.09.15-1.32.39Z"/>
      <path d="M244.7,340.6c-.46.46-2.48.93-4.64,1.08l-3.87.23,4.49.15c4.95.15,5.5,1.01,2.48,3.87-1.63,1.55-1.7,2.01-.93,3.33.46.77,1.55,1.47,2.32,1.47,3.95,0,22.45,4.33,26.55,6.19,5.88,2.71,8.82,8.28,5.11,9.68-.7.23-1.01.23-.7-.08,1.01-1.01-3.64-3.41-6.58-3.41-3.56,0-3.72.7-.62,3.02,1.32.93,2.17,2.01,1.94,2.32-.15.39.15,1.78.85,3.1,1.16,2.32,1.16,2.63-.23,4.18-1.47,1.63-2.32,5.96-1.16,5.96.31,0,1.86-.31,3.48-.7,2.63-.62,2.86-.62,1.94.54-.54.77,0,.46,1.08-.54,1.16-1.01,1.94-2.17,1.7-2.48-.23-.39,0-.7.39-.7.46,0,.85-1.63.85-3.87,0-3.64.15-3.87,2.01-3.87,1.24,0,1.78.31,1.39.93-.31.54-.23.62.39.31.46-.31.7-.93.46-1.32-.31-.39-.08-.7.39-.7s.62-.39.39-.77c-.23-.46-.08-.77.39-.77,1.47,0,.39-8.44-1.24-9.75-.85-.7-.93-.93-.31-.62s.15-.54-1.01-1.78c-1.47-1.63-2.71-2.24-3.72-2.01-.93.31-1.47,0-1.47-.77,0-1.94-14.4-6.73-20.28-6.73-1.94,0-3.1-.46-3.64-1.39-.46-.77-.85-.93-.85-.31,0,1.7-3.02-.46-3.56-2.55-.46-1.94-2.48-2.55-3.79-1.24Z"/>
      <path d="M232.32,343c-1.01.39-1.08.7-.39.7.62,0,1.86-.31,2.71-.7,1.01-.39,1.08-.7.39-.7-.62,0-1.86.31-2.71.7Z"/>
      <path d="M129.6,343.54c.46.15,1.39.15,1.94,0,.46-.23.08-.39-1.01-.39s-1.47.15-.93.39Z"/>
      <path d="M126.5,344.32c.54.23,1.24.15,1.47-.08.31-.23-.15-.46-1.01-.39-.85,0-1.08.23-.46.46Z"/>
      <path d="M228.68,344.32c.54.23,1.24.15,1.47-.08.31-.23-.15-.46-1.01-.39-.85,0-1.08.23-.46.46Z"/>
      <path d="M224.42,345.09c.7.15,1.78.15,2.32,0,.46-.23-.08-.39-1.39-.39-1.24,0-1.7.15-.93.39Z"/>
      <path d="M269.01,385.34c-1.01,1.24-.93,1.32.31.31s1.63-1.63,1.01-1.63c-.15,0-.77.62-1.32,1.32Z"/>
    </g>
  </g>
  <g id="_레이어_3" data-name="레이어 3">
    <g>
      <path d="M236.56,478.74c-.72-.91-1.26-1.88-1.62-2.89-.36-1.01-.66-2.01-.9-3-1.56-5.23-2.94-10.29-4.15-15.17-1.21-4.88-2.34-9.79-3.4-14.74l.31-1.47-.62-.15c-.03-.21-.06-.4-.1-.56-.04-.16-.07-.35-.1-.56-.27-.9-.43-1.84-.48-2.81-.05-.97-.12-1.95-.21-2.94-.15-.96.31-1.54,1.39-1.75.74.02,1.47.08,2.19.19.71.11,1.45.35,2.22.73.53.34.83.83.9,1.46,0,.3-.01.52-.02.67,0,.15,0,.3-.01.45-.27,1.3-.21,2.63.2,3.99.28.61.47,1.25.57,1.94.1.69.2,1.38.3,2.07.21.93.58,2.6,1.12,5,.53,2.4,1.15,5.06,1.84,7.97.78-1.32,1.75-2.71,2.91-4.17,1.16-1.46,2.34-2.91,3.54-4.35,1.2-1.44,2.41-2.8,3.62-4.06,1.21-1.26,2.33-2.39,3.34-3.38,1.17-1.13,2.25-2.12,3.26-2.95,1.01-.84,2.1-1.64,3.29-2.42-.33-2.28-.67-4.54-1.02-6.81-.36-2.26-.61-4.5-.76-6.71-.12-.9-.26-1.77-.4-2.63-.14-.85-.26-1.77-.35-2.76.02-.89.29-1.42.8-1.59.15-.14.44-.32.86-.51.49-.52,1.08-.68,1.76-.49.3,0,.6.03.92.07.31.04.66.15,1.04.34.71.26,1.2.84,1.47,1.74.05.42.13.86.23,1.33.11.47.2.94.27,1.42.02.51.07,1.09.15,1.75.09.66.18,1.26.29,1.8.48,2.13.9,4.25,1.26,6.37.36,2.11.72,4.26,1.08,6.45.1.54.2,1.1.29,1.68.09.59.19,1.15.29,1.69.36,1.08.55,2.08.57,2.99.02.91.06,1.9.12,2.98-.04.39,0,.63.11.72.46.82.67,1.64.65,2.46-.02.82.12,1.71.42,2.67.05.27.07.54.04.81-.02.27-.02.58,0,.94.61.52.81,1.06.58,1.6-.22.55-.34,1.04-.35,1.49l.03.54c.23.19.43.41.59.66.16.26.32.49.5.71.05.42.14.93.27,1.53.13.6.22,1.18.27,1.75-.08.77-.05,1.59.09,2.44.14.85.33,1.7.58,2.54,0,.3.01.58.07.85.05.27.05.49-.02.67l-.33.71c.05.27.07.59.06.96,0,.37.03.65.11.83.2.42.31.74.33.95.02.21.15.48.38.82.52,1.59.98,3.2,1.37,4.82.39,1.62.87,3.36,1.45,5.23.03.06.02.13,0,.22l-.05.13c-.32-.22-.64-.49-.94-.83-.31-.34-.59-.63-.85-.87-.64-.73-1.12-1.54-1.46-2.41-.25-.54-.48-1.06-.67-1.56-.2-.5-.48-1.06-.85-1.7-.17-.36-.31-.81-.41-1.35-.11-.54-.38-1.04-.81-1.5-.26-.25-.48-.55-.65-.91s-.36-.68-.56-.95c-.2-.42-.39-.83-.57-1.22-.18-.39-.34-.81-.48-1.27-.42-1.05-.79-2.09-1.12-3.12-.33-1.02-.73-2.05-1.21-3.08-.19-.57-.33-1.13-.4-1.69-.07-.55-.03-1.05.13-1.5l-.42-.91c-.38-.49-.6-1.01-.67-1.56-.07-.55-.21-1.12-.4-1.69.03-.09.06-.26.08-.53.02-.27.1-.5.22-.71.21-.17.36-.57.43-1.2.1-.41-.15-.71-.74-.87-.18-.06-.31-.11-.4-.14-.09-.03-.19-.09-.31-.19-.24-.04-.31-.19-.21-.45-.33-1.02-.25-1.72.24-2.1.06-.03.08-.11.05-.25-.03-.13-.13-.23-.3-.3-.43-.61-.72-1.06-.86-1.36-.14-.3-.24-.66-.28-1.08-.28-.6-.41-1.15-.38-1.64.03-.49-.01-1.01-.11-1.55l.05-.13c-.26-.25-.4-.55-.42-.91-.31.44-.61.86-.91,1.25-.29.4-.65.77-1.08,1.11-.55.55-1.04,1.13-1.46,1.73-.42.6-.83,1.18-1.23,1.73-.19.24-.51.61-.97,1.11-.46.51-.91,1.05-1.34,1.62-.43.57-.84,1.11-1.23,1.62-.39.51-.66.84-.81.99-1.04.93-2,2.02-2.89,3.28-.88,1.26-1.74,2.41-2.58,3.46-.28.2-.57.6-.88,1.18-1.32,1.28-2.82,1.61-4.5,1,.48,1.98.95,3.9,1.41,5.74.46,1.85.87,3.49,1.25,4.93.32,1.32.61,2.6.86,3.85.25,1.25.58,2.47,1,3.67.19.72.34,1.33.46,1.82.12.5.25,1.04.38,1.64-.07.47-.29.72-.65.74-.36.02-.69-.01-.98-.09s-.64-.22-1.02-.41c-.55-.55-1.1-1.14-1.65-1.77-.55-.63-.98-1.27-1.29-1.94ZM257.27,441.27c.08.18.21.38.39.59.14.15.28.25.42.3.13.05.19-.11.17-.46-.08-.18-.12-.35-.12-.5,0-.15,0-.3.01-.45-.08-.18-.3-.34-.66-.47l-.14.17c-.04.24-.12.54-.25.89l.18-.08Z"/>
      <path d="M270.22,412.73c-.15,0-.37-.28-.67-.85-.3-.56-.35-1.18-.15-1.86,1.28-1.04,2.82-2.12,4.61-3.25,1.79-1.13,3.67-2.26,5.64-3.4,1.97-1.14,3.97-2.25,6-3.35,2.03-1.09,3.95-2.14,5.77-3.13.82-.45,1.71-.74,2.69-.87.97-.12,1.92-.22,2.85-.28.75-.13,1.24-.03,1.47.31.23.33.07.78-.48,1.33-.98,1.05-2.03,2.12-3.13,3.23s-2.22,2.1-3.35,3c-.43.35-.85.71-1.26,1.08-.41.38-.83.74-1.26,1.08,1.2,1.79,2.28,3.59,3.23,5.39.95,1.8,1.8,3.67,2.55,5.59.19.57.28,1.04.27,1.42,0,.37.07.81.23,1.33l.19,1.35,1.46,2.41c.82,2.71,1.52,5.42,2.08,8.13.57,2.72,1.08,5.44,1.55,8.16.72,4.08,1.18,8.18,1.39,12.32.2,4.14.02,8.21-.53,12.22l-.78,2.13.33,1.17c-.24,1.07-.49,2.05-.77,2.95-.28.9-.6,1.84-.95,2.81-.42,1.15-.87,2.19-1.36,3.12-.49.93-1.31,1.73-2.46,2.42-.79.52-1.43.85-1.91,1-.48.15-1.1.29-1.85.42-.72.19-1.41.2-2.08.03-.67-.17-1.38-.37-2.15-.6-.5-.28-.84-.73-1.02-1.35-.18-.62.04-1.14.65-1.57,1.64-.91,2.91-1.85,3.81-2.83.91-.97,1.58-2.08,2.04-3.32.42-1.3.79-2.85,1.09-4.65.3-1.79.55-3.66.76-5.59.2-1.93.35-3.82.44-5.67.09-1.85.13-3.5.11-4.96,0-3.16-.2-6.27-.6-9.32-.39-3.05-.87-5.96-1.42-8.72-.55-2.76-1.12-5.29-1.72-7.58-.59-2.3-1.08-4.24-1.45-5.83-.63-2.13-1.22-4.07-1.77-5.8-.55-1.73-1.09-3.32-1.62-4.76-.76.58-1.51,1.14-2.24,1.71-.73.56-1.45,1.12-2.15,1.66-1.1.81-2.4,1.16-3.92,1.06-.62-.08-1.3,0-2.04.24-.74.23-1.42.39-2.05.46-.78.07-1.42.07-1.92.01-.5-.06-1.22-.05-2.15,0Z"/>
      <path d="M313.68,406.8c-.17-1.61-.31-3.06-.42-4.33-.12-1.27-.16-2.35-.13-3.25.03-1.19,0-2.39-.08-3.6-.09-1.21-.14-2.55-.16-4.01.08-.92.57-1.62,1.44-2.11.88-.48,1.75-.41,2.63.21.32.22.55.43.68.62.13.2.24.4.34.61.1.21.22.43.36.66.14.23.39.41.75.53.62.38.9.98.85,1.81-.09,1.22-.05,2.93.13,5.13.18,2.2.45,4.68.83,7.45.37,2.77.84,5.7,1.39,8.79.56,3.09,1.17,6.15,1.85,9.18.68,3.03,1.4,5.91,2.16,8.65s1.56,5.08,2.4,7.04c.33.88.66,1.73.98,2.58.32.84.71,1.6,1.17,2.27.06.12.19.26.41.41.22.15.45.25.69.29.3,0,.63-.11.99-.35.36-.24.59-.42.69-.54.98-.9,2.24-2.18,3.77-3.86,1.54-1.67,3.1-3.41,4.68-5.22,1.59-1.81,3.07-3.55,4.46-5.22,1.39-1.68,2.48-3,3.29-3.96.4-.41.79-.74,1.19-1,.39-.26.82-.38,1.26-.37.36-.02.54.02.56.13.01.1,0,.28-.04.51l-.05.36c-.26.71-.66,1.58-1.21,2.61-.55,1.03-1.15,2.12-1.79,3.26-.64,1.15-1.28,2.22-1.92,3.21-.64,1-1.18,1.82-1.61,2.46-.5.67-1.07,1.49-1.72,2.46-.65.97-1.31,1.95-1.98,2.97-.67,1.01-1.36,2.01-2.07,3.01-.71,1-1.35,1.84-1.9,2.54-.65.97-1.51,1.81-2.57,2.52-.48.23-.95.42-1.38.59-.44.17-.91.18-1.41.05-.98-.36-1.94-.68-2.88-.97-.95-.29-1.85-.65-2.7-1.06-2.2-1.25-3.83-3-4.87-5.23-.85-1.81-1.69-4.07-2.54-6.76-.85-2.69-1.64-5.6-2.36-8.72-.25-.69-.42-1.38-.53-2.07-.1-.69-.04-1.34.19-1.96l-.55-1.18c-.43-.61-.72-1.26-.86-1.97-.14-.7-.33-1.45-.54-2.23.03-.09.05-.28.06-.58,0-.3.09-.59.25-.89.31-.44.5-.97.58-1.59.04-.53-.27-.9-.95-1.1-.39-.04-.67-.17-.84-.38-.44-.16-.54-.37-.3-.63-.17-.51-.24-1.03-.23-1.55.01-.52.16-.88.43-1.08.12-.06.16-.17.12-.33-.04-.16-.19-.3-.46-.39-.09-.99-.17-1.83-.24-2.53-.07-.7-.16-1.32-.26-1.86Z"/>
      <path d="M374.7,434.72c-2.27.18-4.18.02-5.74-.47-1.55-.49-2.84-1.27-3.85-2.34-1.45-1.53-2.59-3.19-3.42-4.97-.83-1.78-1.44-3.63-1.82-5.55-.38-1.92-.6-3.89-.67-5.92-.06-2.03-.04-4.03.07-5.99.09-1.07.2-2.13.33-3.19.13-1.06.32-2.12.56-3.18.06-.03.08-.09.07-.2-.01-.11,0-.2.03-.29.04-.39.15-.71.32-.98.17-.26.35-.51.53-.75.01-.45.07-.8.16-1.07-.05-.27-.03-.54.07-.8.61-1.53,1.42-3,2.42-4.38,1.01-1.39,2.33-2.54,3.96-3.45,1.15-.68,2.35-1.22,3.6-1.62,1.25-.4,2.54-.5,3.88-.32,1.01.12,2,.43,2.97.93.97.5,1.91,1.25,2.8,2.22.66.79,1.34,1.77,2.02,2.92.28.46.54,1.16.77,2.12.23.96.31,1.6.24,1.93-.16.45-.2.87-.12,1.27.08.4.1.73.06.96.2.28.21.53.02.76-.18.24-.27.53-.25.89.02.36.02.67,0,.94-.02.27-.11.62-.27,1.07-.04.24-.25.74-.62,1.5-.38.77-.66,1.26-.85,1.5-.34.53-.68,1.02-1.02,1.47-.34.45-.71.96-1.12,1.51-1.74,2.43-3.77,4.46-6.09,6.1-2.33,1.64-4.68,3.05-7.07,4.24.67,2.85,1.77,5.13,3.3,6.85,1.53,1.71,3.33,2.49,5.39,2.34,1.21-.56,2.44-1.52,3.68-2.88,1.25-1.35,2.39-2.81,3.43-4.36,1.04-1.55,1.98-3.09,2.81-4.62.83-1.53,1.45-2.72,1.87-3.57.38-.76.72-1.57,1.03-2.41.31-.84.65-1.64,1.03-2.41.06-.18.2-.28.41-.3.21-.02.37-.06.5-.12.18.07.33.16.46.28.13.12.25.23.37.32.26.25.5.61.73,1.09.23.48.31.81.24.99-.25,1.37-.59,3-1.03,4.89-.44,1.9-1.1,3.83-1.99,5.78-.89,1.96-2.06,3.79-3.5,5.5-1.45,1.71-3.29,3.08-5.53,4.12-.18.08-.51.22-.97.4-.47.18-.97.36-1.51.54-.54.18-1.06.33-1.56.45-.5.12-.88.21-1.15.26ZM372.12,413.09c1.92-1.56,3.29-3.47,4.12-5.73.82-2.26,1.19-4.38,1.11-6.37-.08-1.99-.56-3.6-1.43-4.85-.88-1.25-2.08-1.62-3.62-1.13-.51.17-1.05.43-1.61.81-.56.37-.95.79-1.18,1.26-.25.41-.41.69-.49.84-.08.15-.13.28-.15.4-.02.12-.06.27-.12.44-.06.18-.16.44-.29.8-.1.42-.25.74-.43.97-.19.24-.31.52-.38.84-.12.21-.17.47-.13.78.04.31.02.56-.04.74,0,.15-.05.32-.15.51-.09.19-.17.38-.24.55-.09.12-.1.21-.03.29.07.08.09.16.06.25-.07.18-.11.29-.12.33-.02.05-.04.19-.08.42-.47,1.99-.81,3.98-1.01,5.99-.21,2.01-.16,3.79.12,5.35,0,.3.02.51.07.63,1.09-.66,2.23-1.37,3.41-2.14,1.18-.77,2.05-1.44,2.6-1.99Z"/>
      <path d="M408.24,419.08c-2.27.18-4.18.02-5.74-.47-1.55-.49-2.84-1.27-3.85-2.34-1.45-1.53-2.59-3.19-3.42-4.97-.83-1.78-1.44-3.63-1.82-5.55-.38-1.92-.6-3.89-.67-5.92-.06-2.03-.04-4.03.07-5.99.09-1.07.2-2.13.33-3.19s.32-2.12.56-3.18c.06-.03.08-.09.07-.2-.01-.11,0-.2.03-.29.04-.39.15-.71.32-.98.17-.26.35-.51.53-.75.01-.45.07-.8.16-1.07-.05-.27-.03-.54.07-.8.61-1.53,1.42-3,2.42-4.39,1.01-1.39,2.33-2.54,3.96-3.45,1.15-.68,2.35-1.22,3.6-1.62,1.25-.4,2.54-.5,3.88-.32,1.01.12,2,.43,2.97.93.97.5,1.91,1.25,2.8,2.22.66.79,1.34,1.77,2.02,2.92.28.46.54,1.16.77,2.12.23.96.31,1.6.24,1.93-.16.45-.2.87-.12,1.27.08.4.1.72.06.96.2.28.21.53.02.76-.18.23-.27.53-.25.89.02.36.02.67,0,.94-.02.27-.11.62-.27,1.07-.04.24-.25.74-.62,1.5-.38.77-.66,1.26-.85,1.5-.34.53-.68,1.02-1.02,1.47-.34.45-.71.96-1.12,1.51-1.74,2.43-3.77,4.46-6.09,6.1-2.33,1.64-4.68,3.05-7.07,4.24.67,2.85,1.77,5.13,3.3,6.85,1.53,1.71,3.33,2.49,5.39,2.34,1.21-.56,2.44-1.52,3.68-2.88,1.25-1.35,2.39-2.81,3.43-4.36,1.04-1.55,1.98-3.09,2.81-4.62.83-1.53,1.45-2.72,1.87-3.57.38-.76.72-1.57,1.03-2.41.31-.84.65-1.64,1.03-2.41.06-.18.2-.28.41-.3.21-.02.37-.06.5-.12.18.07.33.16.46.28.13.12.25.23.37.32.26.25.5.61.73,1.09.23.48.31.81.24.99-.25,1.37-.59,3-1.03,4.89-.44,1.9-1.1,3.83-1.99,5.79-.89,1.96-2.06,3.79-3.51,5.5-1.45,1.71-3.29,3.08-5.53,4.12-.18.08-.51.22-.97.4-.47.18-.97.36-1.51.54-.54.18-1.06.33-1.56.45-.5.12-.88.21-1.15.26ZM405.65,397.45c1.92-1.56,3.29-3.47,4.12-5.73.82-2.26,1.19-4.38,1.11-6.37-.08-1.98-.56-3.6-1.43-4.85-.88-1.25-2.08-1.62-3.62-1.13-.51.17-1.05.43-1.61.81-.56.37-.95.79-1.18,1.27-.25.41-.41.69-.49.84-.08.15-.13.28-.15.4-.02.12-.06.27-.12.44-.06.18-.16.44-.29.8-.1.42-.25.74-.43.97-.19.24-.31.52-.38.84-.12.21-.17.46-.13.78.04.31.02.56-.04.74,0,.15-.05.32-.15.51-.1.19-.18.38-.24.55-.09.12-.1.21-.03.29.07.08.09.16.06.25-.07.18-.11.29-.12.33-.02.04-.04.19-.08.42-.47,1.99-.81,3.98-1.01,5.99-.2,2.01-.16,3.79.12,5.35,0,.3.02.51.07.63,1.09-.66,2.23-1.37,3.41-2.14,1.18-.77,2.05-1.44,2.6-1.99Z"/>
    </g>
  </g>
</svg>